<svg id="instagram" xmlns="http://www.w3.org/2000/svg" width="16.901" height="16.901" viewBox="0 0 16.901 16.901">
  <path id="Path_1" data-name="Path 1" d="M12.325,0H4.574A4.58,4.58,0,0,0,0,4.575v7.751A4.58,4.58,0,0,0,4.574,16.9h7.751A4.58,4.58,0,0,0,16.9,12.326V4.575A4.58,4.58,0,0,0,12.325,0ZM8.449,13.072A4.621,4.621,0,1,1,13.071,8.45,4.626,4.626,0,0,1,8.449,13.072Zm4.732-8.153a1.366,1.366,0,1,1,1.366-1.366A1.367,1.367,0,0,1,13.181,4.919Zm0,0" transform="translate(0.001 0)" fill="#737373"/>
  <path id="Path_2" data-name="Path 2" d="M149.65,146.02a3.63,3.63,0,1,0,3.63,3.63A3.635,3.635,0,0,0,149.65,146.02Zm0,0" transform="translate(-141.2 -141.2)" fill="#737373"/>
  <path id="Path_3" data-name="Path 3" d="M388.367,96.3a.375.375,0,1,0,.375.375A.375.375,0,0,0,388.367,96.3Zm0,0" transform="translate(-375.185 -93.122)" fill="#737373"/>
</svg>
