<svg xmlns="http://www.w3.org/2000/svg" width="21.032" height="17.088" viewBox="0 0 21.032 17.088">
  <path id="twitter" d="M18.871,6.512a8.607,8.607,0,0,0,2.161-2.238h0a9,9,0,0,1-2.484.681,4.289,4.289,0,0,0,1.9-2.383A8.627,8.627,0,0,1,17.71,3.614a4.311,4.311,0,0,0-7.458,2.948,4.44,4.44,0,0,0,.1.983,12.207,12.207,0,0,1-8.888-4.51A4.312,4.312,0,0,0,2.789,8.8,4.262,4.262,0,0,1,.841,8.267v.047A4.332,4.332,0,0,0,4.3,12.551a4.287,4.287,0,0,1-1.13.142,3.806,3.806,0,0,1-.816-.074,4.354,4.354,0,0,0,4.028,3,8.667,8.667,0,0,1-5.346,1.839A8.155,8.155,0,0,1,0,17.4a12.142,12.142,0,0,0,6.614,1.935A12.188,12.188,0,0,0,18.871,6.512Z" transform="translate(0 -2.25)" fill="#737373"/>
</svg>
